<?xml version="1.0" encoding="iso-8859-1"?>
<!-- Generator: Adobe Illustrator 19.0.0, SVG Export Plug-In . SVG Version: 6.00 Build 0)  -->
<svg version="1.1" id="Layer_1" xmlns="http://www.w3.org/2000/svg" xmlns:xlink="http://www.w3.org/1999/xlink" x="0px" y="0px"
	 viewBox="0 0 512 512" style="enable-background:new 0 0 512 512;" xml:space="preserve">
<path style="fill:#FFA055;" d="M467.862,512H44.138c-4.875,0-8.828-3.953-8.828-8.828v-17.655c0-4.875,3.953-8.828,8.828-8.828
	h423.724c4.875,0,8.828,3.953,8.828,8.828v17.655C476.69,508.047,472.737,512,467.862,512z"/>
<path style="fill:#FFB45A;" d="M269.3,0h-26.6c-7.819,0-14.707,5.143-16.928,12.64L88.276,476.69h335.448L286.228,12.64
	C284.007,5.143,277.119,0,269.3,0z"/>
<g>
	<polygon style="fill:#FFEBBE;" points="171.975,194.207 340.025,194.207 319.101,123.586 192.899,123.586 	"/>
	<polygon style="fill:#FFEBBE;" points="119.662,370.759 392.338,370.759 371.413,300.138 140.587,300.138 	"/>
</g>
<g>
	<polygon style="fill:#FFA055;" points="219.055,35.31 292.945,35.31 287.714,17.655 224.286,17.655 	"/>
	<polygon style="fill:#FFA055;" points="208.593,70.621 303.407,70.621 298.176,52.966 213.824,52.966 	"/>
</g>
<g>
</g>
<g>
</g>
<g>
</g>
<g>
</g>
<g>
</g>
<g>
</g>
<g>
</g>
<g>
</g>
<g>
</g>
<g>
</g>
<g>
</g>
<g>
</g>
<g>
</g>
<g>
</g>
<g>
</g>
</svg>
